<?xml version="1.0" encoding="iso-8859-1"?>
<!-- Generator: Adobe Illustrator 19.0.0, SVG Export Plug-In . SVG Version: 6.00 Build 0)  -->
<svg version="1.1" id="Capa_1" xmlns="http://www.w3.org/2000/svg" xmlns:xlink="http://www.w3.org/1999/xlink" x="0px" y="0px"
	 viewBox="0 0 512.004 512.004" style="enable-background:new 0 0 512.004 512.004;" xml:space="preserve">
<g>
	<g>
		<g>
			<path d="M248.605,335.386c2.751,0,5.547-0.692,8.112-2.165c40.966-23.403,96.931-62.816,110.004-134.578
				c1.553-8.467,2.077-17.448,1.544-26.705c-0.506-9.035-8.209-15.975-17.288-15.424c-9.026,0.515-15.939,8.254-15.416,17.288
				c0.373,6.559,0.009,13.108-1.065,18.948c-8.085,44.392-37.967,79.989-94.029,112.019c-7.854,4.491-10.588,14.502-6.097,22.356
				C237.387,332.421,242.907,335.386,248.605,335.386z"/>
			<path d="M158.685,156.468c-9.363-0.311-16.711,6.567-17.128,15.602c-2.521,54.004,27.911,102.975,77.522,124.772
				c2.139,0.941,4.375,1.393,6.576,1.393c6.301,0,12.301-3.665,15.016-9.798c3.639-8.289-0.124-17.954-8.413-21.593
				c-45.067-19.8-59.391-62.612-57.971-93.248C174.713,164.562,167.728,156.885,158.685,156.468z"/>
			<path d="M454.111,366.394c-18.291-47.676-96.63-77.744-105.504-81.01c-7.996-2.955-16.978,0.745-20.545,8.52
				c-15.886,34.523-42.91,55.122-72.312,55.122h-0.009c-29.287,0-55.317-20.093-71.407-55.113
				c-3.577-7.774-12.54-11.484-20.554-8.529c-8.875,3.266-87.231,33.334-105.496,81.001c-11.271,29.349-10.863,48.679-10.392,71.061
				c0.089,4.597,0.195,9.416,0.195,14.599c0,9.052,7.331,16.383,16.383,16.383s16.383-7.331,16.383-16.383
				c0-5.431-0.098-10.472-0.195-15.291c-0.453-21.237-0.745-35.269,8.227-58.636c9.106-23.749,48.199-45.448,72.943-56.506
				c22.09,37.976,56.329,60.18,93.914,60.189c0.009,0,0.018,0,0.018,0c38.073,0,72.632-22.214,94.801-60.163
				c24.335,10.96,63.935,32.926,72.978,56.497c9.363,24.432,11.058,71.673,11.36,101.102H60.68c-9.052,0-16.383,7.348-16.383,16.392
				s7.331,16.374,16.383,16.374h390.663c9.052,0,16.383-7.331,16.365-16.383C467.708,449.25,466.101,397.643,454.111,366.394z"/>
			<path d="M70.62,106.68l177.923,75.223c2.041,0.861,4.216,1.296,6.381,1.296c2.174,0,4.349-0.435,6.39-1.296l177.941-75.223
				c6.07-2.556,10.002-8.502,10.002-15.087s-3.932-12.522-10.002-15.087L261.314,1.291c-4.074-1.722-8.688-1.722-12.762,0
				L70.62,76.506c-6.07,2.556-10.002,8.502-10.002,15.087S64.549,104.116,70.62,106.68z M254.924,34.173l135.874,57.42
				l-135.865,57.429L119.076,91.593L254.924,34.173z"/>
		</g>
	</g>
</g>
<g>
</g>
<g>
</g>
<g>
</g>
<g>
</g>
<g>
</g>
<g>
</g>
<g>
</g>
<g>
</g>
<g>
</g>
<g>
</g>
<g>
</g>
<g>
</g>
<g>
</g>
<g>
</g>
<g>
</g>
</svg>
